<svg width="26" height="26" viewBox="0 0 26 26" fill="none" xmlns="http://www.w3.org/2000/svg">
<path d="M17.6432 7.42578C17.0881 7.42578 16.6382 7.87573 16.6382 8.43051C16.6382 8.9856 17.0881 9.43555 17.6432 9.43555C18.198 9.43555 18.6479 8.9856 18.6479 8.43051C18.6479 7.87573 18.198 7.42578 17.6432 7.42578Z" fill="#F502BE"/>
<path fill-rule="evenodd" clip-rule="evenodd" d="M13.0638 25.0638C19.7615 25.0638 25.1913 19.6343 25.1913 12.9362C25.1913 6.2381 19.7615 0.808511 13.0638 0.808511C6.36576 0.808511 0.935952 6.23812 0.935952 12.9362C0.935952 19.6342 6.36575 25.0638 13.0638 25.0638ZM13.0638 25.8723C20.208 25.8723 25.9998 20.0808 25.9998 12.9362C25.9998 5.79157 20.208 0 13.0638 0C5.91924 0 0.127441 5.79157 0.127441 12.9362C0.127441 20.0808 5.91924 25.8723 13.0638 25.8723Z" fill="#F502BE"/>
<path d="M13.1755 15.6408C11.6844 15.6408 10.4713 14.4277 10.4713 12.9366C10.4713 11.4455 11.6844 10.2324 13.1755 10.2324C14.6669 10.2324 15.8796 11.4455 15.8796 12.9366C15.8796 14.4277 14.6669 15.6408 13.1755 15.6408ZM13.1755 8.71484C10.8477 8.71484 8.9541 10.6088 8.9541 12.9366C8.9541 15.2644 10.8477 17.1583 13.1755 17.1583C15.5032 17.1583 17.3972 15.2644 17.3972 12.9366C17.3972 10.6088 15.5032 8.71484 13.1755 8.71484Z" fill="#F502BE"/>
<path d="M9.6827 5.97696C7.73265 5.97696 6.1464 7.56322 6.1464 9.51332V16.3576C6.1464 18.3077 7.73265 19.894 9.6827 19.894H16.5266C18.4767 19.894 20.0633 18.3077 20.0633 16.3576V9.51332C20.0633 7.56322 18.4767 5.97696 16.5266 5.97696H9.6827ZM16.5266 21.5067H9.6827C6.84373 21.5067 4.53369 19.197 4.53369 16.3576V9.51332C4.53369 6.67398 6.84373 4.36426 9.6827 4.36426H16.5266C19.3659 4.36426 21.676 6.67398 21.676 9.51332V16.3576C21.676 19.197 19.3659 21.5067 16.5266 21.5067Z" fill="#F502BE"/>
</svg>
