<svg width="26" height="26" viewBox="0 0 26 26" fill="currentColor" xmlns="http://www.w3.org/2000/svg">
<path fill-rule="evenodd" clip-rule="evenodd" d="M12.9362 0.808511C6.23835 0.808511 0.808511 6.23814 0.808511 12.9362C0.808511 19.634 6.23836 25.0638 12.9362 25.0638C19.634 25.0638 25.0638 19.634 25.0638 12.9362C25.0638 6.23814 19.634 0.808511 12.9362 0.808511ZM12.9362 0C5.79183 0 0 5.7916 0 12.9362C0 20.0805 5.79183 25.8723 12.9362 25.8723C20.0805 25.8723 25.8723 20.0805 25.8723 12.9362C25.8723 5.7916 20.0805 0 12.9362 0Z" fill="white"/>
<path d="M6.62321 19.1174H9.60761V10.1392H6.62321V19.1174ZM8.13498 5.81152C7.1137 5.81152 6.4458 6.48177 6.4458 7.36247C6.4458 8.22451 7.09458 8.91411 8.09584 8.91411H8.11516C9.15652 8.91411 9.80388 8.22451 9.80388 7.36247C9.78406 6.48177 9.15652 5.81152 8.13498 5.81152ZM20.3702 13.9687V19.1174H17.3852V14.3141C17.3852 13.1076 16.9541 12.284 15.8734 12.284C15.0486 12.284 14.5586 12.8386 14.3423 13.3756C14.2637 13.5674 14.2434 13.834 14.2434 14.1031V19.1174H11.2581C11.2581 19.1174 11.2982 10.9817 11.2581 10.1392H14.2434V11.4115L14.2236 11.441H14.2434V11.4115C14.6402 10.801 15.3477 9.92856 16.9336 9.92856C18.8979 9.92856 20.3702 11.2115 20.3702 13.9687Z" fill="white"/>
</svg>
