<svg width="26" height="26" viewBox="0 0 26 26" fill="currentColor" xmlns="http://www.w3.org/2000/svg">
<path fill-rule="evenodd" clip-rule="evenodd" d="M12.9787 0.808511C6.28074 0.808511 0.850991 6.23826 0.850991 12.9362C0.850991 19.6341 6.28074 25.0638 12.9787 25.0638C19.6766 25.0638 25.1063 19.6341 25.1063 12.9362C25.1063 6.23826 19.6766 0.808511 12.9787 0.808511ZM12.9787 0C5.83421 0 0.0424805 5.79173 0.0424805 12.9362C0.0424805 20.0806 5.83421 25.8723 12.9787 25.8723C20.1231 25.8723 25.9148 20.0806 25.9148 12.9362C25.9148 5.79173 20.1231 0 12.9787 0Z" fill="#0F9AFB"/>
<path d="M12.5914 10.5147L12.6185 10.9623L12.1661 10.9075C10.5193 10.6974 9.08054 9.98485 7.85898 8.78815L7.26176 8.19438L7.10795 8.63287C6.78219 9.61032 6.99031 10.6426 7.66897 11.3369C8.0309 11.7205 7.94948 11.7753 7.32513 11.547C7.10795 11.4739 6.91792 11.4191 6.89984 11.4465C6.8365 11.5104 7.05365 12.3417 7.22557 12.6706C7.46085 13.1273 7.94042 13.575 8.46524 13.8399L8.90862 14.05L8.3838 14.0591C7.87709 14.0591 7.85898 14.0683 7.91328 14.2601C8.09423 14.8539 8.80909 15.4842 9.60536 15.7583L10.1664 15.9501L9.67775 16.2424C8.95387 16.6626 8.10329 16.9001 7.25274 16.9184C6.84553 16.9275 6.51074 16.9641 6.51074 16.9915C6.51074 17.0829 7.61466 17.5944 8.25713 17.7954C10.1845 18.3892 12.4737 18.1334 14.193 17.1194C15.4146 16.3977 16.6361 14.9635 17.2062 13.5749C17.5138 12.835 17.8215 11.483 17.8215 10.8344C17.8215 10.4142 17.8486 10.3594 18.3553 9.85697C18.6539 9.56463 18.9345 9.2449 18.9887 9.15357C19.0792 8.98 19.0702 8.98 18.6087 9.13528C17.8396 9.40935 17.731 9.37282 18.111 8.96173C18.3915 8.6694 18.7263 8.13956 18.7263 7.98427C18.7263 7.95687 18.5906 8.00254 18.4368 8.08476C18.2739 8.17612 17.912 8.31314 17.6405 8.39536L17.1519 8.55064L16.7085 8.24918C16.4642 8.08476 16.1203 7.90205 15.9394 7.84725C15.4779 7.71934 14.7721 7.73763 14.3559 7.88379C13.2248 8.29487 12.5099 9.35452 12.5914 10.5147Z" fill="#0F9AFB"/>
</svg>
