<svg width="16" height="16" viewBox="0 0 16 16" fill="currentColor" xmlns="http://www.w3.org/2000/svg">
<path fill-rule="evenodd" clip-rule="evenodd" d="M13.6688 2.32516C12.1647 0.826537 10.1645 0.000868955 8.03339 0C3.64236 0 0.0685243 3.55647 0.0668103 7.92786C0.0661959 9.32527 0.433039 10.6892 1.13022 11.8916L0 16L4.22319 14.8975C5.38678 15.5291 6.69689 15.8621 8.03022 15.8625H8.03345C8.03371 15.8625 8.03326 15.8625 8.03352 15.8625C12.4241 15.8625 15.9982 12.3057 16 7.9342C16.0008 5.81569 15.1729 3.82372 13.6688 2.32516ZM8.03342 14.5235H8.03074C6.84264 14.5231 5.67727 14.2054 4.66063 13.605L4.41887 13.4622L1.91276 14.1164L2.58171 11.6847L2.42425 11.4353C1.76145 10.3861 1.41139 9.17346 1.41191 7.92831C1.41333 4.29499 4.38378 1.33906 8.0361 1.33906C9.80467 1.33961 11.4672 2.02598 12.7174 3.27158C13.9675 4.51718 14.6556 6.17286 14.6549 7.93365C14.6534 11.5673 11.683 14.5235 8.03342 14.5235Z" fill="white"/>
<path fill-rule="evenodd" clip-rule="evenodd" d="M11.6653 9.58815C11.4663 9.48899 10.4876 9.00981 10.3052 8.94364C10.1227 8.87753 9.99001 8.84448 9.85733 9.0428C9.72464 9.24108 9.34315 9.68734 9.22703 9.81958C9.11093 9.95172 8.99477 9.96836 8.79577 9.86911C8.59672 9.76995 7.95533 9.56079 7.19503 8.88587C6.60325 8.36054 6.20377 7.71185 6.08762 7.51347C5.97152 7.31519 6.07526 7.20798 6.17493 7.10918C6.26447 7.02038 6.374 6.87781 6.47354 6.76211C6.57304 6.64648 6.60622 6.56376 6.67258 6.43165C6.73894 6.29941 6.70579 6.18371 6.65599 6.08458C6.60622 5.98543 6.20814 5.01033 6.04228 4.6136C5.88065 4.22737 5.71657 4.2797 5.59436 4.27355C5.47843 4.26779 5.34555 4.2666 5.21287 4.2666C5.08019 4.2666 4.86449 4.3162 4.68207 4.51448C4.49962 4.71283 3.98535 5.19214 3.98535 6.16713C3.98535 7.14226 4.69863 8.08427 4.79817 8.21645C4.89767 8.34873 6.2018 10.3496 8.19861 11.2077C8.67353 11.4119 9.04432 11.5338 9.33339 11.625C9.81024 11.7759 10.2442 11.7545 10.5872 11.7035C10.9696 11.6467 11.7649 11.2243 11.9307 10.7616C12.0966 10.2988 12.0966 9.90213 12.0468 9.81955C11.9971 9.73693 11.8644 9.68734 11.6653 9.58815Z" fill="white"/>
</svg>
