<svg width="26" height="26" viewBox="0 0 26 26" fill="currentColor" xmlns="http://www.w3.org/2000/svg">
<path fill-rule="evenodd" clip-rule="evenodd" d="M13.0211 25.0638C19.7191 25.0638 25.1488 19.6341 25.1488 12.9362C25.1488 6.23825 19.7191 0.808511 13.0211 0.808511C6.32321 0.808511 0.893472 6.23825 0.893472 12.9362C0.893472 19.6341 6.32321 25.0638 13.0211 25.0638ZM13.0211 25.8723C20.1656 25.8723 25.9573 20.0806 25.9573 12.9362C25.9573 5.79172 20.1656 0 13.0211 0C5.87668 0 0.0849609 5.79172 0.0849609 12.9362C0.0849609 20.0806 5.87668 25.8723 13.0211 25.8723Z" fill="white"/>
<path d="M5.07724 8.74477C5.15147 7.60201 6.07023 6.70643 7.21399 6.64977C8.87024 6.56771 11.2375 6.46875 13.0211 6.46875C14.8048 6.46875 17.172 6.56771 18.8283 6.64977C19.9721 6.70643 20.8908 7.60201 20.965 8.74477C21.0362 9.83962 21.1062 11.1868 21.1062 12.2438C21.1062 13.3009 21.0362 14.648 20.965 15.7429C20.8908 16.8856 19.9721 17.7812 18.8283 17.8379C17.172 17.9199 14.8048 18.0189 13.0211 18.0189C11.2375 18.0189 8.87024 17.9199 7.21399 17.8379C6.07023 17.7812 5.15147 16.8856 5.07724 15.7429C5.00612 14.648 4.93604 13.3009 4.93604 12.2438C4.93604 11.1868 5.00612 9.83962 5.07724 8.74477Z" fill="white"/>
<path d="M11.2886 9.93359V14.5537L15.9086 12.2436L11.2886 9.93359Z" fill="#546E7A"/>
</svg>
