<svg width="67" height="35" viewBox="0 0 67 35" fill="none" xmlns="http://www.w3.org/2000/svg">
<path d="M0.510742 17.5656C0.510742 14.2894 1.21954 11.3754 2.63714 8.82374C4.05474 6.24056 6.02362 4.24017 8.5438 2.82258C11.0955 1.37348 13.9779 0.648926 17.1911 0.648926C21.1289 0.648926 24.4996 1.6885 27.3033 3.76764C30.107 5.84678 30.9458 2.20434 35.3758 1.02695L38.12 5.55227L39.5246 6.98241V8.62565C37.1496 8.62565 22.4363 9.83181 21.2077 9.10726C20.0106 8.38271 18.6402 8.02044 17.0966 8.02044C14.608 8.02044 12.5918 8.88675 11.0482 10.6194C9.50461 12.352 8.73281 14.6674 8.73281 17.5656C8.73281 20.4638 9.50461 22.7792 11.0482 24.5118C12.5918 26.2444 14.608 27.1108 17.0966 27.1108C18.6402 27.1108 20.0106 26.7485 21.2077 26.0239C22.4363 25.2994 23.3813 24.2441 24.0429 22.858H29.4115H46.5646C46.7231 33.1233 32.4485 35.6922 28.4847 30.7532C25.681 32.8008 21.1289 34.435 17.1911 34.435C13.9779 34.435 11.0955 33.7262 8.5438 32.3086C6.02362 30.8595 4.05474 28.8591 2.63714 26.3074C1.21954 23.7558 0.510742 20.8418 0.510742 17.5656Z" fill="white"/>
<path d="M66.3212 1.02695L54.8387 23.236V34.1987H46.7584L46.4141 23.236C46.4141 23.236 42.5228 9.06946 40.112 8.82374C37.7012 8.57803 35.3758 1.02695 35.3758 1.02695H44.443L50.8694 14.9194L57.2486 1.02695H66.3212Z" fill="white"/>
</svg>
