<svg width="67" height="34" viewBox="0 0 67 34" fill="none" xmlns="http://www.w3.org/2000/svg">
<path d="M0.510763 17.0655C0.510763 13.7893 1.21956 10.8754 2.63716 8.32368C4.05476 5.7405 6.02364 3.74011 8.54382 2.32251C11.0955 0.873411 13.9779 0.148861 17.1912 0.148861C21.1289 0.148861 24.4997 1.18843 27.3034 3.26758C30.1071 5.34672 30.9458 1.70428 35.3758 0.526888L38.12 5.05221L39.5246 6.48235V8.12559C37.1496 8.12559 22.4363 9.33175 21.2077 8.6072C20.0106 7.88265 18.6403 7.52037 17.0967 7.52037C14.608 7.52037 12.5918 8.38668 11.0482 10.1193C9.50463 11.8519 8.73283 14.1673 8.73283 17.0655C8.73283 19.9637 9.50463 22.2791 11.0482 24.0118C12.5918 25.7444 14.608 26.6107 17.0967 26.6107C18.6403 26.6107 20.0106 26.2484 21.2077 25.5239C22.4363 24.7993 23.3813 23.744 24.0429 22.3579H29.4115H46.5647C46.7231 32.6232 32.4485 35.1921 28.4847 30.2531C25.681 32.3008 21.1289 33.9349 17.1912 33.9349C13.9779 33.9349 11.0955 33.2261 8.54382 31.8085C6.02364 30.3594 4.05476 28.3591 2.63716 25.8074C1.21956 23.2557 0.510763 20.3418 0.510763 17.0655Z" fill="white"/>
<path d="M66.3213 0.526888L54.8387 22.7359V33.6987H46.7584L46.4142 22.7359C46.4142 22.7359 42.5228 8.56939 40.112 8.32368C37.7012 8.07796 35.3758 0.526888 35.3758 0.526888H44.443L50.8694 14.4193L57.2486 0.526888H66.3213Z" fill="white"/>
</svg>
