<svg width="27" height="27" viewBox="0 0 27 27" fill="none" xmlns="http://www.w3.org/2000/svg">
<path d="M7.5 17.25H21C21.825 17.25 22.5 17.925 22.5 18.75C22.5 19.575 21.825 20.25 21 20.25H6C5.175 20.25 4.5 19.575 4.5 18.75V3.75H1.5C0.675 3.75 0 3.075 0 2.25C0 1.425 0.675 0.75 1.5 0.75H6C6.825 0.75 7.5 1.425 7.5 2.25V5.25H27L21 15.75H7.5V17.25ZM6.75 21.75C7.995 21.75 9 22.755 9 24C9 25.245 7.995 26.25 6.75 26.25C5.505 26.25 4.5 25.245 4.5 24C4.5 22.755 5.505 21.75 6.75 21.75ZM20.25 21.75C21.495 21.75 22.5 22.755 22.5 24C22.5 25.245 21.495 26.25 20.25 26.25C19.005 26.25 18 25.245 18 24C18 22.755 19.005 21.75 20.25 21.75Z" fill="#898A8A"/>
</svg>
