<svg width="27" height="26" viewBox="0 0 27 26" fill="none" xmlns="http://www.w3.org/2000/svg">
<path d="M7.5 16.75H21C21.825 16.75 22.5 17.425 22.5 18.25C22.5 19.075 21.825 19.75 21 19.75H6C5.175 19.75 4.5 19.075 4.5 18.25V3.25H1.5C0.675 3.25 0 2.575 0 1.75C0 0.925 0.675 0.25 1.5 0.25H6C6.825 0.25 7.5 0.925 7.5 1.75V4.75H27L21 15.25H7.5V16.75ZM6.75 21.25C7.995 21.25 9 22.255 9 23.5C9 24.745 7.995 25.75 6.75 25.75C5.505 25.75 4.5 24.745 4.5 23.5C4.5 22.255 5.505 21.25 6.75 21.25ZM20.25 21.25C21.495 21.25 22.5 22.255 22.5 23.5C22.5 24.745 21.495 25.75 20.25 25.75C19.005 25.75 18 24.745 18 23.5C18 22.255 19.005 21.25 20.25 21.25Z" fill="#898A8A"/>
</svg>
